<svg width="32" height="32" viewBox="0 0 32 32" fill="none" xmlns="http://www.w3.org/2000/svg">
<path d="M26.5811 12.0224C26.7827 12.6499 26.6259 13.1429 26.1333 13.5238L21.05 17.3782L22.9982 23.6527C23.2445 24.5266 22.5951 25.3333 21.789 25.3333C21.5202 25.3333 21.2739 25.2437 21.05 25.0644L15.9891 21.2101L10.9282 25.0644C10.6568 25.2484 10.326 25.323 10.0021 25.2731C9.67813 25.2232 9.385 25.0526 9.18148 24.7955C9.05056 24.6394 8.96468 24.4504 8.93312 24.249C8.90155 24.0476 8.92548 23.8414 9.00233 23.6527L10.9282 17.423L5.84487 13.5238C5.37461 13.1429 5.21785 12.6499 5.41939 12.0224C5.59854 11.4846 6.0688 11.1261 6.58385 11.1261H12.854L14.8022 4.87395C14.959 4.35854 15.4292 4 15.9667 4C16.5265 4 17.0192 4.38095 17.1759 4.91877L19.1241 11.1261H25.3943C25.9317 11.1261 26.402 11.4846 26.5811 12.0224Z" fill="#53C6D1"/>
</svg>
